STARTFONT 2.1
FONT -FreeType-ChillBitmap 7px-Medium-R-Normal--8-60-96-96-P-72-ISO10646-1
SIZE 6 96 96
FONTBOUNDINGBOX 9 8 -1 -2
STARTPROPERTIES 16
FOUNDRY "FreeType"
FAMILY_NAME "chua 7px"
WEIGHT_NAME "Medium"
SLANT "R"
SETWIDTH_NAME "Normal"
ADD_STYLE_NAME ""
PIXEL_SIZE 8
POINT_SIZE 60
RESOLUTION_X 96
RESOLUTION_Y 96
SPACING "P"
AVERAGE_WIDTH 72
CHARSET_REGISTRY "ISO10646"
CHARSET_ENCODING "1"
FONT_ASCENT 6
FONT_DESCENT 2
ENDPROPERTIES
CHARS 1
STARTCHAR 6B3B
ENCODING 27451
SWIDTH 1000 0
DWIDTH 8 0
BBX 7 7 0 -1
BITMAP
A8
6E
D6
24
B4
6A
D2
ENDCHAR
